<svg xmlns="http://www.w3.org/2000/svg" style="display: none;">
    <symbol id="icon-logo-github" viewBox="0 0 48 48">
        <g class="nc-icon-wrapper">
            <path fill-rule="evenodd" clip-rule="evenodd" fill="#191717"
                  d="M23.99845,0.59265C10.74637,0.59265,0,11.33769,0,24.59404 c0,10.60258,6.87606,19.59804,16.41386,22.77204c1.20004,0.22012,1.63806-0.52082,1.63806-1.15686 c0-0.56974-0.02077-2.07903-0.03241-4.08188c-6.67598,1.45035-8.08463-3.21718-8.08463-3.21718 c-1.09131-2.77253-2.66469-3.51067-2.66469-3.51067c-2.17907-1.4891,0.16487-1.4589,0.16487-1.4589 c2.40847,0.16973,3.67612,2.47329,3.67612,2.47329c2.14091,3.66758,5.6171,2.60854,6.98465,1.99416 c0.21805-1.55098,0.83804-2.60854,1.52373-3.20849c-5.32935-0.60569-10.93201-2.66468-10.93201-11.86154 c0-2.62004,0.93513-4.76241,2.47034-6.4401c-0.24678-0.60716-1.07038-3.0473,0.23529-6.35155c0,0,2.01508-0.64532,6.59981,2.46033 c1.91431-0.53232,3.9674-0.79855,6.00842-0.80783c2.03807,0.00928,4.09131,0.27551,6.00842,0.80783 c4.58193-3.10565,6.59333-2.46033,6.59333-2.46033c1.30935,3.30425,0.48561,5.74439,0.23883,6.35155 c1.53816,1.67769,2.46695,3.82007,2.46695,6.4401c0,9.21985-5.61135,11.24863-10.95794,11.84283 c0.86175,0.74094,1.62936,2.20573,1.62936,4.44447c0,3.20848-0.02947,5.79699-0.02947,6.5839 c0,0.64178,0.43228,1.38847,1.65029,1.15406C41.12967,44.18338,48,35.19382,48,24.59404 C48,11.33769,37.25348,0.59265,23.99845,0.59265z"/>
        </g>
    </symbol>
    <symbol id="icon-logo-github-2" viewBox="0 0 48 48">
        <g class="nc-icon-wrapper">
            <path fill-rule="evenodd" clip-rule="evenodd"
                  d="M24,0.6c-13.3,0-24,10.7-24,24c0,10.6,6.9,19.6,16.4,22.8 c1.2,0.2,1.6-0.5,1.6-1.2c0-0.6,0-2.1,0-4.1c-6.7,1.5-8.1-3.2-8.1-3.2c-1.1-2.8-2.7-3.5-2.7-3.5c-2.2-1.5,0.2-1.5,0.2-1.5 c2.4,0.2,3.7,2.5,3.7,2.5c2.1,3.7,5.6,2.6,7,2c0.2-1.6,0.8-2.6,1.5-3.2c-5.3-0.6-10.9-2.7-10.9-11.9c0-2.6,0.9-4.8,2.5-6.4 c-0.2-0.6-1.1-3,0.2-6.4c0,0,2-0.6,6.6,2.5c1.9-0.5,4-0.8,6-0.8c2,0,4.1,0.3,6,0.8c4.6-3.1,6.6-2.5,6.6-2.5c1.3,3.3,0.5,5.7,0.2,6.4 c1.5,1.7,2.5,3.8,2.5,6.4c0,9.2-5.6,11.2-11,11.8c0.9,0.7,1.6,2.2,1.6,4.4c0,3.2,0,5.8,0,6.6c0,0.6,0.4,1.4,1.7,1.2 C41.1,44.2,48,35.2,48,24.6C48,11.3,37.3,0.6,24,0.6z"/>
        </g>
    </symbol>
    <symbol id="icon-logo-linkedin" viewBox="0 0 48 48">
        <g class="nc-icon-wrapper">
            <path fill="#007BB5"
                  d="M44.44853,0H3.54103C1.58791,0,0.00067,1.54948,0.00067,3.46093V44.5364 C0.00067,46.44787,1.58791,48,3.54103,48h40.90751c1.95707,0,3.5508-1.55213,3.5508-3.4636V3.46093 C47.99933,1.54948,46.4056,0,44.44853,0z"/>
            <path fill="#FFFFFF"
                  d="M7.11264,17.9948h7.12629v22.90627H7.11264V17.9948z M10.67775,6.60807 c2.27735,0,4.12625,1.84961,4.12625,4.12827c0,2.27929-1.84891,4.12887-4.12625,4.12887c-2.28645,0-4.1302-1.84957-4.1302-4.12887 C6.54755,8.45768,8.39129,6.60807,10.67775,6.60807"/>
            <path fill="#FFFFFF"
                  d="M18.70507,17.9948h6.82427v3.13147h0.0976c0.9492-1.8008,3.27213-3.69987,6.73573-3.69987 c7.20827,0,8.5404,4.74293,8.5404,10.91213v12.56253h-7.11853V29.76173c0-2.65627-0.0456-6.0736-3.6992-6.0736 c-3.7044,0-4.2696,2.8952-4.2696,5.88347v11.32947h-7.11067V17.9948z"/>
        </g>
    </symbol>
    <symbol id="icon-logo-linkedin-2" viewBox="0 0 48 48">
        <g class="nc-icon-wrapper">
            <path d="M46,0H2C0.9,0,0,0.9,0,2v44c0,1.1,0.9,2,2,2h44c1.1,0,2-0.9,2-2V2C48,0.9,47.1,0,46,0z M14.2,40.9H7.1V18 h7.1V40.9z M10.7,14.9c-2.3,0-4.1-1.8-4.1-4.1c0-2.3,1.8-4.1,4.1-4.1c2.3,0,4.1,1.8,4.1,4.1C14.8,13,13,14.9,10.7,14.9z M40.9,40.9 h-7.1V29.8c0-2.7,0-6.1-3.7-6.1c-3.7,0-4.3,2.9-4.3,5.9v11.3h-7.1V18h6.8v3.1h0.1c0.9-1.8,3.3-3.7,6.7-3.7c7.2,0,8.5,4.7,8.5,10.9 V40.9z"/>
        </g>
    </symbol>
    <symbol id="icon-logo-wordpress" viewBox="0 0 48 48">
        <g class="nc-icon-wrapper">
            <path fill="#464342"
                  d="M3.41166,23.99927c0,8.14911,4.73531,15.19228,11.60371,18.52892L5.19439,15.6204 C4.05202,18.18073,3.41166,21.01429,3.41166,23.99927z"/>
            <path fill="#464342"
                  d="M37.89825,22.9609c0-2.54531-0.91438-4.30689-1.69741-5.67799 c-1.04336-1.69671-2.02234-3.13217-2.02234-4.8289c0-1.89219,1.43497-3.65398,3.45731-3.65398 c0.09135,0,0.17796,0.01112,0.2667,0.01667c-3.66273-3.35614-8.543-5.40548-13.9028-5.40548 c-7.19296,0-13.52052,3.69079-17.20195,9.27956c0.48345,0.01548,0.93875,0.02496,1.32508,0.02496 c2.15295,0,5.48712-0.26173,5.48712-0.26173c1.10937-0.06497,1.24037,1.56551,0.1317,1.69673c0,0-1.11577,0.13049-2.35614,0.1957 l7.49693,22.30121l4.50613-13.51259l-3.20743-8.78862c-1.10927-0.06521-2.15947-0.1957-2.15947-0.1957 c-1.10973-0.06557-0.97958-1.7617,0.13061-1.69673c0,0,3.39935,0.26173,5.42229,0.26173c2.15273,0,5.48748-0.26173,5.48748-0.26173 c1.10985-0.06497,1.24071,1.56551,0.13134,1.69673c0,0-1.11695,0.13049-2.35623,0.1957l7.44046,22.1313l2.05406-6.86117 C37.22052,26.76762,37.89825,24.72282,37.89825,22.9609z"/>
            <path fill="#464342"
                  d="M24.36118,25.80025L18.1833,43.74998c1.84496,0.54261,3.79559,0.83889,5.81641,0.83889 c2.39752,0,4.69698-0.41388,6.83692-1.16711c-0.05464-0.08827-0.10577-0.18198-0.14743-0.28373L24.36118,25.80025z"/>
            <path fill="#464342"
                  d="M42.06599,14.12222c0.0885,0.65572,0.13844,1.35915,0.13844,2.11711 c0,2.08837-0.39118,4.43692-1.56564,7.37409l-6.28828,18.18142c6.12074-3.56879,10.23711-10.19997,10.23711-17.79557 C44.58764,20.41973,43.67302,17.05457,42.06599,14.12222z"/>
            <path fill="#464342"
                  d="M23.99971,0.00017C10.76601,0.00017,0,10.76593,0,23.99927c0,13.23431,10.76601,24.00056,23.99971,24.00056 C37.23329,47.99983,48,37.23358,48,23.99927C48,10.76593,37.23329,0.00017,23.99971,0.00017z M23.99971,46.89945 c-12.6265,0-22.89909-10.27334-22.89909-22.90018c0-12.62635,10.27259-22.8986,22.89909-22.8986 c12.62635,0,22.89945,10.27225,22.89945,22.8986C46.89916,36.62611,36.62606,46.89945,23.99971,46.89945z"/>
        </g>
    </symbol>
    <symbol id="icon-logo-wordpress-2" viewBox="0 0 48 48">
        <g class="nc-icon-wrapper">
            <path d="M0,24c0,9.5,5.5,17.7,13.5,21.6L2.1,14.2C0.7,17.2,0,20.5,0,24z"/>
            <path d="M40.2,22.8c0-3-1.1-5-2-6.6c-1.2-2-2.4-3.7-2.4-5.6c0-2.2,1.7-4.3,4-4.3c0.1,0,0.2,0,0.3,0 C35.9,2.4,30.2,0,24,0C15.6,0,8.2,4.3,3.9,10.8c0.6,0,1.1,0,1.5,0c2.5,0,6.4-0.3,6.4-0.3c1.3-0.1,1.4,1.8,0.2,2c0,0-1.3,0.2-2.7,0.2 l8.7,26L23.3,23l-3.7-10.2c-1.3-0.1-2.5-0.2-2.5-0.2c-1.3-0.1-1.1-2.1,0.2-2c0,0,4,0.3,6.3,0.3c2.5,0,6.4-0.3,6.4-0.3 c1.3-0.1,1.4,1.8,0.2,2c0,0-1.3,0.2-2.7,0.2L36,38.5l2.4-8C39.4,27.2,40.2,24.8,40.2,22.8z"/>
            <path d="M24.4,26.1L17.2,47c2.2,0.6,4.4,1,6.8,1c2.8,0,5.5-0.5,8-1.4c-0.1-0.1-0.1-0.2-0.2-0.3L24.4,26.1z"/>
            <path d="M45.1,12.5c0.1,0.8,0.2,1.6,0.2,2.5c0,2.4-0.5,5.2-1.8,8.6l-7.3,21.2C43.2,40.6,48,32.9,48,24 C48,19.8,46.9,15.9,45.1,12.5z"/>
        </g>
    </symbol>
    <symbol id="icon-logo-shopify" viewBox="0 0 48 48">
        <g class="nc-icon-wrapper">
            <path fill="#95BF47"
                  d="M39.84516,9.35914c-0.03441-0.24086-0.24086-0.3785-0.4129-0.3785S35.5785,8.70538,35.5785,8.70538 s-2.54624-2.54624-2.85592-2.82151c-0.27527-0.27527-0.82581-0.20645-1.03226-0.13763c-0.03441,0-0.55054,0.17204-1.44516,0.44731 c-0.86022-2.51183-2.3742-4.7828-5.02366-4.7828c-0.06882,0-0.13763,0-0.24086,0C24.25806,0.44731,23.29462,0,22.50323,0 c-6.19355,0-9.15269,7.74194-10.08172,11.66452c-2.4086,0.75699-4.12903,1.27312-4.33548,1.34194 c-1.34194,0.4129-1.37634,0.44731-1.54839,1.72043C6.4,15.69032,2.89032,42.87312,2.89032,42.87312L30.24516,48l14.83011-3.2 C45.07527,44.76559,39.87957,9.6,39.84516,9.35914z M28.73118,6.60645c-0.68817,0.20645-1.47957,0.44731-2.30537,0.72258 c0-0.17204,0-0.30968,0-0.51613c0-1.51398-0.20645-2.75269-0.55054-3.75054C27.25161,3.26882,28.14624,4.8172,28.73118,6.60645z M24.15484,3.40645c0.37849,0.96344,0.61935,2.30538,0.61935,4.16344c0,0.10323,0,0.17204,0,0.27527 c-1.51398,0.48172-3.13118,0.96344-4.78279,1.47957C20.92043,5.78064,22.67527,4.06021,24.15484,3.40645z M22.33118,1.65161 c0.27527,0,0.55054,0.10323,0.7914,0.27527c-1.9957,0.92903-4.09462,3.26882-4.98925,7.9828 c-1.30753,0.4129-2.58064,0.7914-3.78495,1.16989C15.38065,7.50107,17.89247,1.65161,22.33118,1.65161z"/>
            <path fill="#5E8E3E"
                  d="M39.43226,8.94624c-0.17204,0-3.85376-0.27527-3.85376-0.27527s-2.54624-2.54624-2.85592-2.82151 c-0.10323-0.10323-0.24086-0.17204-0.37849-0.17204L30.27957,48l14.83011-3.2c0,0-5.1957-35.2-5.23011-35.44086 C39.81075,9.11828,39.6043,8.98065,39.43226,8.94624z"/>
            <path fill="#FFFFFF"
                  d="M25.22151,17.13548l-1.82366,5.43656c0,0-1.6172-0.86021-3.57849-0.86021 c-2.89032,0-3.02796,1.82366-3.02796,2.27097c0,2.47742,6.46882,3.44086,6.46882,9.25591c0,4.57635-2.89032,7.53548-6.8129,7.53548 c-4.71398,0-7.08817-2.92473-7.08817-2.92473l1.27312-4.16344c0,0,2.47742,2.13333,4.54193,2.13333 c1.37634,0,1.92688-1.06667,1.92688-1.85807c0-3.23441-5.29892-3.37204-5.29892-8.70538c0-4.47312,3.2-8.8086,9.70323-8.8086 C23.9828,16.4129,25.22151,17.13548,25.22151,17.13548z"/>
        </g>
    </symbol>
    <symbol id="icon-logo-shopify-2" viewBox="0 0 48 48">
        <g class="nc-icon-wrapper">
            <path d="M39.9,9.3c0-0.2-0.2-0.4-0.4-0.4c-0.2,0-3.9-0.3-3.9-0.3S33,6.1,32.7,5.8c-0.3-0.3-0.8-0.2-1-0.1 c0,0-0.6,0.2-1.4,0.4c-0.9-2.5-2.4-4.7-5-4.7c-0.1,0-0.1,0-0.2,0c-0.8-1-1.7-1.4-2.5-1.4c-6.2,0-9.1,7.7-10.1,11.7 C10,12.4,8.3,12.9,8.1,13c-1.3,0.4-1.4,0.5-1.6,1.7c-0.1,1-3.6,28.1-3.6,28.1L30.3,48l14.8-3.2C45.1,44.8,39.9,9.6,39.9,9.3z M24.8,7.6c0,0.1,0,0.2,0,0.3c-1.5,0.5-3.1,1-4.8,1.5c0.9-3.6,2.6-5.3,4.2-5.9C24.6,4.4,24.8,5.7,24.8,7.6z M22.3,1.7 c0.3,0,0.5,0.1,0.8,0.3c-2,0.9-4.1,3.3-5,8c-1.3,0.4-2.6,0.8-3.8,1.2C15.4,7.5,17.9,1.7,22.3,1.7z M23.4,22.6c0,0-1.6-0.9-3.6-0.9 c-2.9,0-3,1.8-3,2.3c0,2.5,6.5,3.4,6.5,9.3c0,4.6-2.9,7.5-6.8,7.5c-4.7,0-7.1-2.9-7.1-2.9l1.3-4.2c0,0,2.5,2.1,4.6,2.1 c1.4,0,1.9-1.1,1.9-1.9c0-3.2-5.3-3.4-5.3-8.7c0-4.5,3.2-8.8,9.7-8.8c2.5,0,3.7,0.7,3.7,0.7L23.4,22.6z M26.4,7.3c0-0.2,0-0.3,0-0.5 c0-1.5-0.2-2.8-0.6-3.7c1.4,0.2,2.3,1.7,2.9,3.5C28.1,6.8,27.3,7.1,26.4,7.3z"/>
        </g>
    </symbol>
    <symbol id="icon-send" viewBox="0 0 48 48">
        <g class="nc-icon-wrapper">
            <path fill="#7F7F7F"
                  d="M13,43c-0.20215,0,4.0459-17.29785,4.0459-17.29785c0.10352-0.33398,0.375-0.58984,0.71484-0.67285 c0.33887-0.08594,0.69922,0.0166,0.94629,0.26367l7,7c0.20508,0.20508,0.31055,0.48828,0.29004,0.77832 c-0.02051,0.28906-0.16504,0.55469-0.39746,0.72852l-12,9C13.42285,42.93359,13.21094,43,13,43z"/>
            <path fill="#E6E6E6"
                  d="M35.99219,45c-0.21289,0-0.4248-0.06836-0.59961-0.2002l-31.99219-24 c-0.29004-0.2168-0.43945-0.57227-0.3916-0.93066c0.04688-0.3584,0.28418-0.66309,0.62012-0.79785l40-16 c0.34082-0.13477,0.72949-0.07617,1.01074,0.16016c0.28223,0.23438,0.41309,0.60449,0.34082,0.96484l-8.00781,40 c-0.06738,0.33691-0.30273,0.61523-0.62402,0.73828C36.2334,44.97852,36.1123,45,35.99219,45z"/>
            <path fill="#B3B3B3"
                  d="M13.00098,43c-0.05371,0-0.10742-0.00391-0.16113-0.0127C12.35547,42.9082,12,42.49023,12,42V27 c0-0.31641,0.15039-0.61426,0.4043-0.80273l31-23c0.4248-0.31543,1.01855-0.24512,1.35938,0.15625 c0.34082,0.40332,0.30957,1.00098-0.07031,1.36719L17.19855,31.15095l-3.25031,11.16545C13.81055,42.72949,13.4248,43,13.00098,43z"/>
        </g>
    </symbol>
    <symbol id="icon-send-2" viewBox="0 0 48 48">
        <g class="nc-icon-wrapper">
            <path d="M45.977,3.832a.715.715,0,0,0-.019-.092.987.987,0,0,0-.141-.314l-.005-.01c-.007-.011-.02-.016-.028-.026a1.056,1.056,0,0,0-.138-.154c-.027-.022-.059-.035-.087-.055s-.052-.035-.081-.051a1,1,0,0,0-.31-.115c-.014,0-.028,0-.041,0a1.015,1.015,0,0,0-.3.009.941.941,0,0,0-.1.024c-.028.008-.057.009-.085.019l-42,16a1,1,0,0,0-.221,1.752l6.121,4.321,20.508-9.607L12,27.578V43a1,1,0,0,0,.571.9A.984.984,0,0,0,13,44a1,1,0,0,0,.633-.226L23.5,35.7l12.919,9.119A1,1,0,0,0,37,45a1,1,0,0,0,.98-.8l8-40a.123.123,0,0,0,0-.02c0-.021,0-.042,0-.063A.978.978,0,0,0,45.977,3.832Z"/>
        </g>
    </symbol>
    <symbol id="icon-at-sign" viewBox="0 0 48 48">
        <g class="nc-icon-wrapper">
            <path d="M23.387,45.981c-5.749,0-12.156-1.513-16.623-6.652C-.879,30.533,1.5,16.813,8.1,9.147,13.937,2.356,25.309.064,34.548,3.813,43.624,7.5,46.39,16,45.954,22.731c-.663,10.214-5.633,12.118-8.536,12.344a6.515,6.515,0,0,1-6.764-3.6,11.869,11.869,0,0,1-4.329,2.942,9.415,9.415,0,0,1-7.964-.327c-5.271-2.813-5.336-9.148-3.789-13.72.915-2.708,4.93-11.227,18.153-7.2l1.611.491-.21,1.671c-.477,3.8-1.062,9.752-.871,11.087.512,3.581,1.539,4.843,3.852,4.668,2.865-.223,4.5-3.121,4.854-8.615.168-2.59.022-11.323-8.917-14.951C26.383,4.815,16.367,5.662,11.13,11.754c-4.8,5.584-7.941,17.361-1.347,24.951,6.742,7.757,19.806,5.09,23.85,3.544l1.428,3.736A35.039,35.039,0,0,1,23.387,45.981ZM26.239,16.1a7.66,7.66,0,0,0-7.878,5.552c-.378,1.118-2.065,6.8,1.883,8.909a5.487,5.487,0,0,0,4.63.129,7.992,7.992,0,0,0,4.371-4.27,81.6,81.6,0,0,1,.705-9.854A16.454,16.454,0,0,0,26.239,16.1Z"
                  fill="#ed69ab"/>
        </g>
    </symbol>
    <symbol id="icon-at-sign-2" viewBox="0 0 48 48">
        <g class="nc-icon-wrapper">
            <path d="M24,.5a23.5,23.5,0,1,0,9.4,45.044l2.291-1-2-4.582-2.291,1A18.5,18.5,0,1,1,42.5,24v4.5a3,3,0,0,1-6,0v-16h-5v1.524a12.492,12.492,0,1,0,1.3,18.839A7.994,7.994,0,0,0,47.5,28.5V24A23.527,23.527,0,0,0,24,.5Zm0,31A7.5,7.5,0,1,1,31.5,24,7.508,7.508,0,0,1,24,31.5Z"/>
        </g>
    </symbol>
</svg>