<svg xmlns="http://www.w3.org/2000/svg" style="display: none;">
  <symbol id="icon-calendar-date" viewBox="0 0 48 48">
    <g class="nc-icon-wrapper">
      <rect x="10" y="32" width="8" height="8" rx="1"/>
      <rect x="10" y="22" width="8" height="8" rx="1"/>
      <rect x="20" y="32" width="8" height="8" rx="1"/>
      <rect x="20" y="22" width="8" height="8" rx="1"/>
      <rect x="30" y="22" width="8" height="8" rx="1"/>
      <path d="M12,11a1,1,0,0,1-1-1V2a1,1,0,0,1,2,0v8A1,1,0,0,1,12,11Z"/>
      <path d="M44,5H39v5a3,3,0,0,1-6,0V5H15v5a3,3,0,0,1-6,0V5H4A3,3,0,0,0,1,8V43a3,3,0,0,0,3,3H44a3,3,0,0,0,3-3V8A3,3,0,0,0,44,5Zm1,38a1,1,0,0,1-1,1H4a1,1,0,0,1-1-1V18H45Z"/>
      <path d="M36,11a1,1,0,0,0,1-1V2a1,1,0,0,0-2,0v8A1,1,0,0,0,36,11Z"/>
    </g>
  </symbol>
  <symbol id="icon-compass-3" viewBox="0 0 48 48">
    <g class="nc-icon-wrapper">
      <path d="M24,1C11.317,1,1,11.318,1,24s10.317,23,23,23s23-10.318,23-23S36.683,1,24,1z M36.342,21.94L25.78,25.78 l-3.841,10.562C21.796,36.738,21.419,37,21,37c-0.012,0-0.023,0-0.035,0c-0.434-0.016-0.808-0.308-0.927-0.725l-6-21 c-0.1-0.35-0.002-0.725,0.255-0.982c0.258-0.257,0.635-0.354,0.981-0.254l21,6c0.417,0.119,0.71,0.493,0.725,0.926 C37.015,21.398,36.749,21.792,36.342,21.94z"/>
    </g>
  </symbol>
  <symbol id="icon-juice" viewBox="0 0 48 48">
    <g class="nc-icon-wrapper">
      <path d="M19.182,47H8.818a4.006,4.006,0,0,1-3.992-3.75L3,14.062A1,1,0,0,1,4,13H24a1,1,0,0,1,1,1.062L23.174,43.25A4.006,4.006,0,0,1,19.182,47ZM5.064,15,6.822,43.125a2,2,0,0,0,2,1.875H19.182a2,2,0,0,0,2-1.875L22.936,15Z"/>
      <path d="M36,5a8.009,8.009,0,0,0-8,8v3a1,1,0,0,0,1,1,8.009,8.009,0,0,0,8-8V6A1,1,0,0,0,36,5Z"/>
      <path d="M32,21a12.9,12.9,0,0,0-5.509,1.242L25.17,43.375a5.948,5.948,0,0,1-.291,1.488A13,13,0,1,0,32,21Zm3,20a1,1,0,1,1,1-1A1,1,0,0,1,35,41Zm0-8a1,1,0,1,1,1-1A1,1,0,0,1,35,33Zm3,4a1,1,0,1,1,1-1A1,1,0,0,1,38,37Z"/>
      <path d="M9.942,11h2.011l-.959-9.1A1,1,0,0,0,10,1H2A1,1,0,0,0,2,3H9.1Z"/>
      <polygon points="8.006 30 8.818 43 19.182 43 19.994 30 8.006 30"/>
    </g>
  </symbol>
  <symbol id="icon-ic_check_circle_48px" viewBox="0 0 48 48">
    <g class="nc-icon-wrapper" stroke="none">
      <path d="M24 4C12.95 4 4 12.95 4 24c0 11.04 8.95 20 20 20 11.04 0 20-8.96 20-20 0-11.05-8.96-20-20-20zm-4 30L10 24l2.83-2.83L20 28.34l15.17-15.17L38 16 20 34z"/>
    </g>
  </symbol>
  <symbol id="icon-ic_check_box_48px" viewBox="0 0 48 48">
    <g class="nc-icon-wrapper" stroke="none">
      <path d="M38 6H10c-2.21 0-4 1.79-4 4v28c0 2.21 1.79 4 4 4h28c2.21 0 4-1.79 4-4V10c0-2.21-1.79-4-4-4zM20 34L10 24l2.83-2.83L20 28.34l15.17-15.17L38 16 20 34z"/>
    </g>
  </symbol>
  <symbol id="icon-mouse" viewBox="0 0 48 48">
    <g class="nc-icon-wrapper">
      <path d="M24,1A16.019,16.019,0,0,0,8,17V31a16,16,0,0,0,32,0V17A16.019,16.019,0,0,0,24,1Zm1,22a1,1,0,0,1-2,0V12a1,1,0,0,1,2,0Z"/>
    </g>
  </symbol>
  <symbol id="icon-badge-13" viewBox="0 0 48 48">
    <g class="nc-icon-wrapper">
      <path d="M45,5l-7,0c-0.557,0-0.998,0.454-1,1.011c-0.008,2.282-2.577,3.972-4.978,2.339 C31.27,7.838,30.98,6.933,31,6.023C31.012,5.46,30.56,5,30,5L18,5c-0.557,0-0.998,0.454-1,1.011 c-0.008,2.282-2.577,3.972-4.978,2.339C11.27,7.838,10.98,6.933,11,6.023C11.012,5.46,10.56,5,10,5H3C1.895,5,1,5.895,1,7v34 c0,1.105,0.895,2,2,2h42c1.105,0,2-0.895,2-2V7C47,5.895,46.105,5,45,5z M16,17c2.209,0,4,1.791,4,4c0,2.209-1.791,4-4,4 c-2.209,0-4-1.791-4-4C12,18.791,13.791,17,16,17z M9,33c0-3.314,2.686-6,6-6h2c3.314,0,6,2.686,6,6H9z M38,31h-9 c-0.552,0-1-0.448-1-1s0.448-1,1-1h9c0.552,0,1,0.448,1,1S38.552,31,38,31z M38,23h-9c-0.552,0-1-0.448-1-1s0.448-1,1-1h9 c0.552,0,1,0.448,1,1S38.552,23,38,23z"/>
    </g>
  </symbol>
  <symbol id="icon-opening-times" viewBox="0 0 48 48">
    <g class="nc-icon-wrapper">
      <path d="M13,10a1,1,0,0,1-1-1V2a1,1,0,0,1,2,0V9A1,1,0,0,1,13,10Z"/>
      <path d="M35,10a1,1,0,0,1-1-1V2a1,1,0,0,1,2,0V9A1,1,0,0,1,35,10Z"/>
      <path d="M27.425,41H5a1,1,0,0,1-1-1V17a1,1,0,0,1,1-1H43a1,1,0,0,1,1,1V28.787a11.058,11.058,0,0,1,2,1.679V7a2,2,0,0,0-2-2H38V9a3,3,0,0,1-6,0V5H16V9a3,3,0,0,1-6,0V5H4A2,2,0,0,0,2,7V41a2,2,0,0,0,2,2H28.21A10.893,10.893,0,0,1,27.425,41Z"/>
      <path d="M38,47a9,9,0,1,0-9-9A9,9,0,0,0,38,47ZM37,33a1,1,0,0,1,2,0v4h4a1,1,0,0,1,0,2H38a1,1,0,0,1-1-1Z"/>
    </g>
  </symbol>
  <symbol id="icon-marker-2" viewBox="0 0 48 48">
    <g class="nc-icon-wrapper">
      <path d="M24,1A23,23,0,1,0,47,24,23.026,23.026,0,0,0,24,1ZM34.736,32.677a1,1,0,0,1-1.108.252L24,29.077l-9.628,3.852a1,1,0,0,1-1.267-1.376l10-20a1.042,1.042,0,0,1,1.79,0l10,20A1,1,0,0,1,34.736,32.677Z"/>
    </g>
  </symbol>
  <symbol id="icon-logo-linkedin" viewBox="0 0 48 48">
    <g class="nc-icon-wrapper">
      <path d="M46,0H2C0.9,0,0,0.9,0,2v44c0,1.1,0.9,2,2,2h44c1.1,0,2-0.9,2-2V2C48,0.9,47.1,0,46,0z M14.2,40.9H7.1V18 h7.1V40.9z M10.7,14.9c-2.3,0-4.1-1.8-4.1-4.1c0-2.3,1.8-4.1,4.1-4.1c2.3,0,4.1,1.8,4.1,4.1C14.8,13,13,14.9,10.7,14.9z M40.9,40.9 h-7.1V29.8c0-2.7,0-6.1-3.7-6.1c-3.7,0-4.3,2.9-4.3,5.9v11.3h-7.1V18h6.8v3.1h0.1c0.9-1.8,3.3-3.7,6.7-3.7c7.2,0,8.5,4.7,8.5,10.9 V40.9z"/>
    </g>
  </symbol>
  <symbol id="icon-dress-man" viewBox="0 0 48 48">
    <g class="nc-icon-wrapper">
      <path d="M46,7h-7.7L37,1.8C36.9,1.3,36.5,1,36,1H12c-0.5,0-0.9,0.3-1,0.8L9.7,7H2C1.4,7,1,7.4,1,8v38 c0,0.6,0.4,1,1,1h21V33.6l-7.8-7.8l2.1-4.2l-8.2-4.1l3.2-12.7L24,26.1L35.7,4.7l3.2,12.7l-8.2,4.1l2.1,4.2L25,33.6V47h21 c0.6,0,1-0.4,1-1V8C47,7.4,46.6,7,46,7z M38,39h-6c-0.6,0-1-0.4-1-1s0.4-1,1-1h6c0.6,0,1,0.4,1,1S38.6,39,38,39z"/>
    </g>
  </symbol>
  <symbol id="icon-users-wm" viewBox="0 0 48 48">
    <g class="nc-icon-wrapper">
      <path d="M44.367,31.343l-7.9-2.872a1,1,0,0,1-.65-.8l-.405-2.836A9.024,9.024,0,0,0,40,17V11.072a5.371,5.371,0,0,0-4.727-5.326L34.4,4a1.842,1.842,0,0,0-2.239-.9L26.774,5.025A7.456,7.456,0,0,0,22.9,8.508,11.375,11.375,0,0,1,27,17.274V19a16.391,16.391,0,0,0,2.5,7.336,3,3,0,0,1-1.157,4.349,7.309,7.309,0,0,1-.993.386l1.378.413A5.966,5.966,0,0,1,33,37.232V42a2.966,2.966,0,0,1-.184,1H46a1,1,0,0,0,1-1V35.1A4.01,4.01,0,0,0,44.367,31.343Z"/>
      <path d="M30,43H2a1,1,0,0,1-1-1V37.232A3.977,3.977,0,0,1,3.851,33.4l6.637-1.991a1,1,0,0,0,.7-.816l.162-1.125c-4.285.651-6.688-.519-6.8-.573a1,1,0,0,1-.385-1.45A18.144,18.144,0,0,0,7,19V17a9,9,0,0,1,9.6-8.98A9.162,9.162,0,0,1,25,17.274V19a18.144,18.144,0,0,0,2.832,8.445,1,1,0,0,1-.385,1.45c-.11.054-2.513,1.223-6.8.573l.162,1.125a1,1,0,0,0,.7.816L28.149,33.4A3.977,3.977,0,0,1,31,37.232V42A1,1,0,0,1,30,43Z"/>
    </g>
  </symbol>
</svg>